# xmcd
#
# Track frame offsets:
#	150
#	15947
#	32900
#	44403
#	70582
#	87614
#	103586
#	118274
#	140444
#	155322
#	185843
#	207174
#
# Disc length: 3047 seconds
#
# Revision: 0
# Processed by: cddbd v1.5.2PL0 Copyright (c) Steve Scherf et al.
# Submitted via: audiograbber 1.83.01
#
DISCID=a40be50c
DTITLE=Cdpool - Urban July 2010 CD2
DYEAR=2010
DGENRE=R&B
TTITLE0=K'Naan - Waving Flag (Coca-Cola Celebration Mix)
TTITLE1=T.I. Ft Keri Hilson - Got Your Back
TTITLE2=Wideboys and Majestic Ft B-Live and Boy Better Know - In The VIP (Radio Edi
TTITLE2=t)
TTITLE3=Fugative - Bad Girl (Tremorefire Remix)
TTITLE4=Diddy-Dirty Money Ft T.I. - Hello Good Morning (Remix Ft Tinie Tempah &
TTITLE4=Tinchy Stryder)
TTITLE5=Montsalung - Fresh Like Dougie (Main Mix)
TTITLE6=Klashnekoff - Soon Come (Explicit Version)
TTITLE7=Greenjade Ft Guvna B, Icie and L Dubzy - Creation Me (Remix)
TTITLE8=Isaac Aesilli - With You In My Bed
TTITLE9=The Grooveblaster - Angie Dickinson (Old School Acid Jazz Mix)
TTITLE10=Jon B - Don't Talk (Album Version)
TTITLE11=Horace Brown - Taste Your Love (Album Version)
EXTD=
EXTT0=
EXTT1=
EXTT2=
EXTT3=
EXTT4=
EXTT5=
EXTT6=
EXTT7=
EXTT8=
EXTT9=
EXTT10=
EXTT11=
PLAYORDER=
